<?xml version="1.0" encoding="utf-8"?>
<svg xmlns="http://www.w3.org/2000/svg" xmlns:cc="http://web.resource.org/cc/" xmlns:dc="http://purl.org/dc/elements/1.1/" xmlns:inkscape="http://www.inkscape.org/namespaces/inkscape" xmlns:rdf="http://www.w3.org/1999/02/22-rdf-syntax-ns#" xmlns:sodipodi="http://sodipodi.sourceforge.net/DTD/sodipodi-0.dtd" xmlns:svg="http://www.w3.org/2000/svg" xmlns:xlink="http://www.w3.org/1999/xlink" height="48" version="1.0" width="48"><defs><linearGradient id="linearGradient2790"><stop offset="0" style="stop-color:black;stop-opacity:1;"/><stop offset="1" style="stop-color:black;stop-opacity:0;"/></linearGradient><linearGradient id="linearGradient2780"><stop offset="0" style="stop-color:white;stop-opacity:1;"/><stop offset="1" style="stop-color:white;stop-opacity:0;"/></linearGradient><linearGradient id="linearGradient6621"><stop offset="0.0000000" style="stop-color:#f5a108;stop-opacity:0;"/><stop offset="1.0000000" style="stop-color:#fefdc3;stop-opacity:0.743;"/></linearGradient><linearGradient gradientTransform="matrix(1.059,0,0,0.545,1.25,2.739)" gradientUnits="userSpaceOnUse" id="linearGradient7881" x1="22.82" x2="12.85" xlink:href="#linearGradient6621" y1="28.829" y2="12.239"/><linearGradient gradientTransform="matrix(1.996,0,0,1.071,0.903,-1.065)" gradientUnits="userSpaceOnUse" id="linearGradient1697" x1="11.465" x2="6.358" xlink:href="#linearGradient6621" y1="20.416" y2="6.1"/><linearGradient gradientTransform="matrix(2.174,0,0,1.166,-1.102,-2.608)" gradientUnits="userSpaceOnUse" id="linearGradient121" x1="18.711" x2="11.413" xlink:href="#linearGradient6621" y1="34.807" y2="31.452"/><linearGradient gradientUnits="userSpaceOnUse" id="linearGradient2786" x1="22.687" x2="42.438" xlink:href="#linearGradient2780" y1="16.673" y2="52.173"/><radialGradient cx="24.375" cy="37.75" fx="24.375" fy="37.75" gradientTransform="matrix(1,0,0,0.353,0,24.442)" gradientUnits="userSpaceOnUse" id="radialGradient2796" r="17.375" xlink:href="#linearGradient2790"/></defs><path d="M 41.75 37.75 A 17.375 6.125 0 1 1 7,37.75 A 17.375 6.125 0 1 1 41.75 37.75 z" style="opacity:0.428;color:black;fill:url(#radialGradient2796);fill-opacity:1;fill-rule:nonzero;stroke:none;stroke-width:1;stroke-linecap:butt;stroke-linejoin:miter;marker:none;marker-start:none;marker-mid:none;marker-end:none;stroke-miterlimit:4;stroke-dasharray:none;stroke-dashoffset:0;stroke-opacity:1;visibility:visible;display:inline;overflow:visible" transform="matrix(1,0,0,1.255,0,-11.193)"/><path d="M 21.976,38.812 C 22.041,38.716 23.091,40.056 23.091,40.056 C 27.698,35.045 39.457,25.683 42.665,17.875 C 36.178,25.067 25.579,36.637 21.976,38.812 z" style="fill:#d4572d;fill-opacity:1;fill-rule:evenodd;stroke:none;stroke-width:1pt;stroke-linecap:butt;stroke-linejoin:miter;stroke-opacity:1"/><path d="M 14.037,6.58 C 8.67,6.315 6.169,9.762 4.816,13.041 C 3.474,17.359 5.371,25.515 14.67,24.895 C 19.974,24.895 22.083,19.457 24.874,18.046 C 27.411,17.087 27.611,17.001 30.291,17.001 C 34.016,17.001 40.752,14.307 40.752,11.633 C 39.607,9.488 36.567,5.667 30.982,6.318 C 27.426,6.732 24.063,9.272 23.184,10.536 C 21.032,8.639 18.284,6.58 14.037,6.58 z" style="fill:url(#linearGradient7881);fill-opacity:1;fill-rule:evenodd;stroke:none;stroke-width:1pt;stroke-linecap:butt;stroke-linejoin:miter;stroke-opacity:1"/><path d="M 23.837,8.278 C 33.125,-1.007 45.89,7.551 45.806,16.356 C 45.729,24.406 39.592,28.261 24.172,42.579 C 8.033,29.259 2.347,26.188 2.431,16.637 C 2.515,6.751 13.442,-0.669 23.837,8.278 z" id="path920" style="fill:#c71807;fill-opacity:1;fill-rule:evenodd;stroke:#a40000;stroke-width:1;stroke-linecap:butt;stroke-linejoin:miter;stroke-miterlimit:4;stroke-dasharray:none;stroke-opacity:1"/><path d="M 22.648,39.179 C 22.712,39.082 24.117,40.301 24.117,40.301 C 39.403,26.397 43.304,23.698 43.656,18.159 C 41.218,23.677 38.119,25.375 22.648,39.179 z" style="color:black;fill:url(#linearGradient121);fill-opacity:1;fill-rule:evenodd;stroke:none;stroke-width:1pt;stroke-linecap:butt;stroke-linejoin:miter;marker:none;marker-start:none;marker-mid:none;marker-end:none;stroke-miterlimit:4;stroke-dashoffset:0;stroke-opacity:1;visibility:visible;display:inline;overflow:visible;opacity:0.428"/><path d="M 13.896,6.98 C 8.163,6.98 5.09,12.68 5.112,16.316 C 5.132,19.721 5.187,21.04 7.715,24.562 C 10.317,28.188 20.882,22.408 24.262,18.802 C 27.686,15.15 38.533,15.911 42.024,12.203 C 40.057,9.724 37.887,6.959 32.876,6.959 C 27.892,6.959 25.364,10.339 23.829,11.728 C 22.092,10.042 19.572,6.98 13.896,6.98 z" style="fill:url(#linearGradient1697);fill-opacity:1;fill-rule:evenodd;stroke:none;stroke-width:1pt;stroke-linecap:butt;stroke-linejoin:miter;stroke-opacity:1"/><path d="M 15.125,5.406 C 14.292,5.335 13.463,5.353 12.688,5.469 C 7.516,6.241 3.611,10.96 3.563,16.625 C 3.522,21.176 4.719,23.929 8.031,27.438 C 11.224,30.818 16.546,34.869 24.156,41.125 C 31.439,34.392 36.678,29.882 39.938,26.344 C 43.32,22.672 44.652,20.086 44.688,16.344 C 44.724,12.486 41.829,8.436 37.844,6.531 C 33.859,4.626 28.966,4.723 24.625,9.063 C 24.215,9.464 23.567,9.491 23.125,9.125 C 20.349,6.735 17.623,5.62 15.125,5.406 z" style="fill:none;fill-opacity:1;fill-rule:evenodd;stroke:url(#linearGradient2786);stroke-width:1;stroke-linecap:butt;stroke-linejoin:miter;stroke-miterlimit:4;stroke-dasharray:none;stroke-opacity:1;opacity:0.253" xlink:href="#path920"/></svg>
